<svg xmlns="http://www.w3.org/2000/svg" viewBox="0 0 300 300" width="32" height="32">
  <defs data-v-fde0c5aa=""><linearGradient data-v-fde0c5aa="" gradientTransform="rotate(25)" id="ae64823f-a812-4d78-b3a8-058dbda2f4bd" x1="0%" y1="0%" x2="100%" y2="0%"><stop data-v-fde0c5aa="" offset="0%" stop-color="#F05000" stop-opacity="1"></stop><stop data-v-fde0c5aa="" offset="100%" stop-color="#F7AA00" stop-opacity="1"></stop></linearGradient></defs><g data-v-fde0c5aa="" id="0bdfaa24-7ad3-401f-b8d0-22043111f175" stroke="none" fill="url(#ae64823f-a812-4d78-b3a8-058dbda2f4bd)" transform="matrix(9,0,0,9,0,0)"><path d="M15.965 16.258l.707-.707 10.39 10.39-.707.707z"></path><path d="M4.935 26.357L26.018 5.274l.707.707L5.642 27.065z"></path><path d="M31 1v4.194h-4.194V1H31m1-1h-6.194v6.194H32V0zM31 26.806V31h-4.194v-4.194H31m1-1h-6.194V32H32v-6.194zM5.194 26.806V31H1v-4.194h4.194m1-1H0V32h6.194v-6.194z"></path></g>
</svg>
