<svg data-v-423bf9ae="" xmlns="http://www.w3.org/2000/svg" viewBox="0 0 449 90" class="iconLeft"><!----><!----><!----><g data-v-423bf9ae="" id="4fa5848d-4110-486b-b82e-0c4d258bd967" fill="#371C00" transform="matrix(6.054490566253662,0,0,6.054490566253662,103.15843200683594,4.828456401824951)"><path d="M7.95 3.22L7.95 2.21L1.13 2.21L1.13 11.48L7.95 11.48L7.95 10.47L2.18 10.47L2.18 7.35L7.34 7.35L7.34 6.33L2.18 6.33L2.18 3.22ZM13.90 4.48L11.70 10.36L9.49 4.48L8.34 4.48L11.09 11.48L12.32 11.48L15.05 4.48ZM18.90 4.37C16.86 4.37 15.51 5.98 15.51 7.98C15.51 9.98 16.86 11.59 18.90 11.59C20.06 11.59 20.89 11.12 21.41 10.36L21.41 11.48L22.46 11.48L22.46 4.48L21.41 4.48L21.41 5.61C20.89 4.86 20.06 4.37 18.90 4.37ZM19.04 10.64C17.49 10.64 16.56 9.42 16.56 7.98C16.56 6.54 17.49 5.32 19.04 5.32C20.59 5.32 21.46 6.54 21.46 7.98C21.46 9.42 20.59 10.64 19.04 10.64ZM25.33 1.68L24.28 1.68L24.28 11.48L25.33 11.48ZM34.12 3.22L34.12 2.21L27.30 2.21L27.30 11.48L34.12 11.48L34.12 10.47L28.35 10.47L28.35 7.35L33.50 7.35L33.50 6.33L28.35 6.33L28.35 3.22ZM38.33 4.37C36.29 4.37 34.94 5.98 34.94 7.98C34.94 9.98 36.29 11.59 38.33 11.59C39.49 11.59 40.32 11.12 40.84 10.36L40.84 11.48L41.89 11.48L41.89 4.48L40.84 4.48L40.84 5.61C40.32 4.86 39.49 4.37 38.33 4.37ZM38.47 10.64C36.92 10.64 35.99 9.42 35.99 7.98C35.99 6.54 36.92 5.32 38.47 5.32C40.03 5.32 40.89 6.54 40.89 7.98C40.89 9.42 40.03 10.64 38.47 10.64ZM46.14 4.37C44.34 4.37 43.40 5.11 43.40 6.37C43.40 8.93 48.06 7.84 48.06 9.59C48.06 10.54 46.84 10.70 46.27 10.70C44.91 10.70 44.38 10.00 44.31 9.28L43.22 9.28C43.29 10.51 44.31 11.59 46.26 11.59C47.99 11.59 49.11 10.85 49.11 9.49C49.11 6.86 44.45 7.95 44.45 6.27C44.45 5.59 45.02 5.26 46.12 5.26C47.29 5.26 47.74 5.75 47.82 6.36L48.89 6.36C48.76 5.33 47.99 4.37 46.14 4.37ZM53.58 10.64C52.16 10.64 51.25 9.65 51.10 8.40L56.97 8.40L56.97 7.98C56.97 5.98 55.64 4.37 53.49 4.37C51.35 4.37 50.02 5.98 50.02 7.98C50.02 9.98 51.42 11.59 53.56 11.59C55.23 11.59 56.27 10.72 56.76 9.46L55.61 9.46C55.23 10.16 54.56 10.64 53.58 10.64ZM53.49 5.32C54.84 5.32 55.68 6.23 55.87 7.42L51.11 7.42C51.31 6.23 52.15 5.32 53.49 5.32Z"></path></g><defs data-v-423bf9ae=""><linearGradient data-v-423bf9ae="" gradientTransform="rotate(25)" id="1b4b86a9-98c9-41d7-9eb2-0c466ccc1948" x1="0%" y1="0%" x2="100%" y2="0%"><stop data-v-423bf9ae="" offset="0%" style="stop-color: rgb(240, 80, 0); stop-opacity: 1;"></stop><stop data-v-423bf9ae="" offset="100%" style="stop-color: rgb(247, 170, 0); stop-opacity: 1;"></stop></linearGradient></defs><g data-v-423bf9ae="" id="b6671a6e-45c1-416b-8133-42867bb2ed0a" transform="matrix(2.8125,0,0,2.8125,0,0)" stroke="none" fill="url(#1b4b86a9-98c9-41d7-9eb2-0c466ccc1948)"><path d="M15.965 16.258l.707-.707 10.39 10.39-.707.707z"></path><path d="M4.935 26.357L26.018 5.274l.707.707L5.642 27.065z"></path><path d="M31 1v4.194h-4.194V1H31m1-1h-6.194v6.194H32V0zM31 26.806V31h-4.194v-4.194H31m1-1h-6.194V32H32v-6.194zM5.194 26.806V31H1v-4.194h4.194m1-1H0V32h6.194v-6.194z"></path></g><!----></svg>